<?xml version="1.0" encoding="utf-8"?>
<!DOCTYPE svg PUBLIC "-//W3C//DTD SVG 1.1//EN" "http://www.w3.org/Graphics/SVG/1.1/DTD/svg11.dtd">
<svg version="1.1" id="Ebene_1" xmlns="http://www.w3.org/2000/svg" xmlns:xlink="http://www.w3.org/1999/xlink" x="0px" y="0px"
	 width="600px" height="400px" viewBox="0 0 600 400" enable-background="new 0 0 600 400" xml:space="preserve">
<g>
	<path fill="#3B1E0F" d="M232.808,171.403c0,0-10.065-6.124-14.25-6.912c-4.184-0.788-10.914-5.82-12.43-5.941
		c-1.516-0.122-11.278-6.427-11.763-7.579c-0.485-1.152-9.035-4.062-12.188-4.85c-3.153-0.788-12.37-7.215-16.129-8.67
		c-3.759-1.456-10.308-6.185-12.066-6.366c-1.758-0.182-4.972-4.851-4.972-4.851s10.247,0.242,13.34,3.334
		c3.092,3.092,9.156,6.669,12.43,8.003c3.274,1.334,12.005,3.517,14.188,4.062c2.183,0.546,10.611,1.879,11.521,4.426
		c0.91,2.547,9.095,8.974,11.824,10.429c2.729,1.455,11.399,5.942,12.188,6.912C225.289,164.371,232.808,171.403,232.808,171.403z"
		/>
	<path fill="#999999" d="M237.489,181.543c0,0-1.121,11.187-1.939,13.43c-0.819,2.244-2.334,4.185-3.335,4.063
		c-1-0.122-4.972-8.459-4.821-10.611c0.151-2.152-0.434-11.061-0.051-11.609c0.384-0.548,1.476-2.853,3.901-3.276
		C233.669,173.114,237.673,179.801,237.489,181.543z"/>
	<path fill="#999999" d="M232.592,179.483c0,0-1.122,11.187-1.94,13.431c-0.818,2.243-2.334,4.184-3.334,4.062
		s-4.973-8.459-4.821-10.611c0.151-2.152-0.435-11.061-0.052-11.608c0.385-0.549,1.476-2.853,3.901-3.276
		C228.772,171.056,232.775,177.743,232.592,179.483z"/>
	<path fill="#999999" d="M226.018,176.272c0,0-1.121,11.187-1.939,13.43c-0.818,2.243-2.334,4.184-3.334,4.062
		c-1-0.122-4.973-8.458-4.821-10.61c0.151-2.153-0.435-11.06-0.05-11.608c0.382-0.548,1.474-2.852,3.899-3.277
		C222.198,167.845,226.202,174.531,226.018,176.272z"/>
	<path fill="#999999" d="M219.382,174.614c0,0-1.121,11.186-1.939,13.429c-0.818,2.244-2.334,4.185-3.334,4.063
		s-4.972-8.459-4.821-10.611c0.151-2.152-0.435-11.06-0.052-11.608c0.384-0.548,1.476-2.852,3.901-3.277
		C215.562,166.186,219.566,172.873,219.382,174.614z"/>
	<path fill="#999999" d="M212.128,173.724c0,0-1.121,11.187-1.94,13.431c-0.818,2.243-2.334,4.184-3.334,4.062
		s-4.972-8.458-4.821-10.611c0.151-2.152-0.434-11.06-0.052-11.608c0.385-0.547,1.476-2.852,3.901-3.276
		C208.308,165.296,212.312,171.983,212.128,173.724z"/>
	<path fill="#999999" d="M205.069,171.036c0,0-1.121,11.186-1.939,13.43c-0.818,2.243-2.334,4.184-3.334,4.062
		c-1-0.122-4.973-8.458-4.821-10.611c0.151-2.152-0.435-11.059-0.052-11.608c0.384-0.548,1.476-2.852,3.901-3.276
		C201.249,162.608,205.252,169.295,205.069,171.036z"/>
	<path fill="#999999" d="M200.456,169.26c0,0-1.122,11.188-1.94,13.431c-0.818,2.243-2.334,4.184-3.335,4.062
		s-4.972-8.458-4.821-10.61c0.152-2.153-0.434-11.06-0.05-11.608c0.383-0.549,1.474-2.854,3.899-3.278
		C196.636,160.833,200.639,167.519,200.456,169.26z"/>
	<path fill="#999999" d="M195.156,164.884c0,0-1.122,11.188-1.94,13.431c-0.819,2.243-2.334,4.184-3.335,4.062
		s-4.972-8.458-4.821-10.61c0.151-2.153-0.434-11.062-0.049-11.609c0.383-0.549,1.474-2.853,3.899-3.277
		C191.335,156.457,195.339,163.144,195.156,164.884z"/>
	<path fill="#999999" d="M190.406,162.171c0,0-1.121,11.186-1.939,13.43c-0.819,2.243-2.334,4.184-3.335,4.062
		s-4.972-8.458-4.821-10.611c0.152-2.153-0.435-11.06-0.052-11.608c0.385-0.548,1.476-2.852,3.901-3.276
		C186.586,153.743,190.59,160.43,190.406,162.171z"/>
	<path fill="#999999" d="M184.797,159.033c0,0-1.122,11.187-1.94,13.43c-0.818,2.243-2.334,4.184-3.334,4.062
		s-4.973-8.458-4.821-10.611c0.151-2.153-0.435-11.06-0.052-11.609c0.385-0.548,1.476-2.852,3.901-3.276
		C180.977,150.604,184.98,157.292,184.797,159.033z"/>
	<path fill="#999999" d="M179.87,155.869c0,0-1.121,11.187-1.94,13.43c-0.818,2.244-2.334,4.184-3.334,4.063
		c-1-0.121-4.972-8.458-4.821-10.611c0.151-2.152-0.435-11.06-0.052-11.609c0.385-0.548,1.476-2.852,3.901-3.276
		C176.05,147.44,180.054,154.127,179.87,155.869z"/>
	<path fill="#999999" d="M175.125,153.909c0,0-1.121,11.187-1.94,13.43c-0.818,2.244-2.334,4.184-3.334,4.063
		c-1-0.121-4.972-8.458-4.821-10.611c0.151-2.151-0.435-11.06-0.052-11.608c0.385-0.548,1.476-2.852,3.901-3.277
		C171.305,145.481,175.309,152.168,175.125,153.909z"/>
	<path fill="#999999" d="M169.456,151.012c0,0-1.121,11.187-1.94,13.431c-0.818,2.244-2.334,4.184-3.334,4.062
		c-1-0.121-4.972-8.458-4.821-10.611c0.151-2.152-0.434-11.06-0.052-11.609c0.385-0.548,1.476-2.852,3.901-3.277
		C165.635,142.584,169.639,149.271,169.456,151.012z"/>
	<path fill="#999999" d="M163.953,147.446c0,0-1.122,11.187-1.94,13.43c-0.818,2.244-2.334,4.184-3.334,4.062
		c-1-0.121-4.973-8.458-4.821-10.61c0.151-2.153-0.435-11.061-0.052-11.609c0.385-0.548,1.476-2.852,3.901-3.276
		C160.133,139.018,164.137,145.705,163.953,147.446z"/>
	<path fill="#999999" d="M158.526,143.576c0,0-1.121,11.187-1.94,13.431c-0.818,2.242-2.334,4.183-3.334,4.062
		c-1-0.121-4.972-8.458-4.821-10.61c0.151-2.152-0.434-11.061-0.051-11.609c0.384-0.548,1.476-2.853,3.901-3.277
		C154.707,135.147,158.71,141.835,158.526,143.576z"/>
	<path fill="#999999" d="M152.994,140.129c0,0-1.122,11.187-1.94,13.43c-0.818,2.244-2.334,4.184-3.334,4.062
		c-1-0.121-4.973-8.458-4.821-10.61c0.151-2.153-0.435-11.061-0.052-11.609c0.385-0.548,1.476-2.852,3.901-3.276
		C149.174,131.701,153.178,138.388,152.994,140.129z"/>
	<path fill="#999999" d="M145.023,136.401c0,0-1.121,11.187-1.94,13.431c-0.818,2.243-2.334,4.184-3.334,4.062
		s-4.972-8.458-4.821-10.611c0.151-2.153-0.434-11.061-0.05-11.608c0.383-0.549,1.474-2.853,3.899-3.277
		C141.202,127.974,145.207,134.66,145.023,136.401z"/>
	<path fill="#999999" d="M140.058,134.817c0,0-4.143,10.452-5.546,12.385c-1.401,1.934-3.391,3.385-4.32,2.994
		c-0.929-0.391-2.464-9.497-1.729-11.526c0.736-2.028,2.612-10.756,3.132-11.178c0.518-0.423,2.199-2.339,4.649-2.083
		C138.694,125.665,140.711,133.194,140.058,134.817z"/>
	<path fill="#999999" d="M132.349,128.973c0,0-4.145,10.452-5.546,12.385c-1.401,1.934-3.393,3.384-4.32,2.994
		c-0.929-0.391-2.466-9.498-1.729-11.526c0.735-2.028,2.612-10.756,3.13-11.178c0.521-0.422,2.202-2.339,4.65-2.083
		C130.983,119.82,133,127.349,132.349,128.973z"/>
	<path fill="#999999" d="M89.534,121.723c0,0,7.761-0.122,16.007-2.183c8.246-2.062,24.011-3.276,25.667-3.033
		c1.659,0.243,3.883,4.407,2.508,6.468s-10.105,7.438-12.168,6.751c-2.061-0.688-7.235-1.292-10.591-0.929
		c-3.354,0.363-14.309-1.172-16.411-1.697C92.445,126.573,87.805,121.795,89.534,121.723z"/>
	<path fill="#999999" d="M75.621,114.677c0,0,7.761-0.121,16.007-2.183c8.247-2.062,24.011-3.275,25.668-3.033
		c1.659,0.243,3.883,4.407,2.508,6.468c-1.375,2.062-10.105,7.438-12.168,6.751c-2.061-0.688-7.234-1.292-10.591-0.929
		c-3.354,0.363-14.309-1.172-16.41-1.697C78.531,119.527,73.891,114.749,75.621,114.677z"/>
	<path fill="#945D14" d="M233.202,171.889c0.325,0.946,6.409,12.683,6.267,14.709c-0.142,2.025-2.425,0.424-4.983,0.043
		c-2.556-0.382-3.223-1.837-6.437-3.413c-3.213-1.576-3.032-4.365-3.032-4.365s-2.94,0.939-4.032,0.151
		c-1.091-0.788-2.698-3.638-2.759-4.426c-0.061-0.789-2.395,3.396-4.123,2.062s-2.85-2.517-2.971-4.093
		c-0.121-1.577-2.759,2.273-4.153,0.637c-1.394-1.636-1.304-2.001-1.364-3.305c-0.061-1.304-1.516,1.94-3.426,0.303
		c-1.91-1.637-2.244-2.88-2.244-2.88s-0.849,1.334-3.123,0.122c-2.274-1.213-2.517-2.304-2.396-2.79
		c0.122-0.485-1.879-0.728-3.456-1.637c-1.577-0.91-4.032,0.152-6.336-2.486c-2.304-2.638-1.273-1.091-1.273-1.091
		s-3.153,0.758-3.88-2.001c-0.727-2.759,0.333-1.334,0.333-1.334s-2.849,1.088-4.911-1.487c-2.062-2.575-3.517,0.154-3.517,0.154
		s0.485-0.396-3.956-2.729c-4.442-2.333-6.867-5.517-6.231-6.517c0.637-1-2.819,2.001-6.033-0.606
		c-3.214-2.607-3.941-5.366-6.519-6.396c-2.578-1.03-5.669-4.123-6.003-4.851s-3.123-1.94-5.336-2.365
		c-2.213-0.424-6.7-4.123-9.125-4.729c-2.425-0.606,6.033-5.063,6.033-5.063s16.614,4.153,17.584,5.426
		c0.97,1.273,8.823,6.972,10.065,7.669c1.243,0.697,12.188,6.396,13.977,6.973c1.789,0.576,13.764,6.791,15.038,7.367
		c1.273,0.576,8.155,6.033,9.459,6.487c1.304,0.454,12.218,6.791,13.067,7.003C214.253,162.643,232.564,170.036,233.202,171.889z"/>
	<path fill="#999999" d="M92.927,103.17c0,0-17.624-2.344-21.342-2.586c-3.72-0.243-14.069-1.456-14.634,0.121
		s1.052,4.73,3.397,5.66c2.345,0.93,15.077,4.971,19.442,6.062c4.365,1.091,18.315,0.971,23.286,1.011
		c4.971,0.04,10.992-1.376,12.852-1.254c1.86,0.121-3.053-6.345-4.799-6.911"/>
	<path fill="#999999" d="M75.314,93.914c0,0-17.624-2.344-21.344-2.586c-3.718-0.243-14.067-1.456-14.632,0.122
		c-0.565,1.577,1.05,4.73,3.395,5.659c2.345,0.929,15.079,4.972,19.444,6.063c4.365,1.091,18.313,0.97,23.284,1.01
		c4.971,0.04,10.994-1.375,12.854-1.254c1.86,0.122-3.052-6.345-4.801-6.912"/>
	<path fill="#1D1D1B" d="M240.314,188.371c0,0-6.509-16.831-7.783-17.922c-1.273-1.091-6.306-6.73-8.671-7.579
		c-2.365-0.849-11.885-7.094-13.643-7.275c-1.758-0.182-11.157-11.035-15.159-11.52c-4.002-0.485-13.037-2.485-16.735-4.183
		c-3.698-1.698-9.58-6.002-11.581-6.245c-2.001-0.242-2.001-5.396-6.185-6.185c-4.184-0.788-10.49-1.333-12.43-1.818
		s-9.576-2.928-12.549-4.435c-2.974-1.506-1.033-3.083-3.216-3.629c-2.183-0.545-19.403,0.304-22.435,1.092
		c-3.032,0.789-6.124-2.304-7.64-2.425c-1.516-0.122,18.008-2.972,18.008-2.972s-26.254-0.121-30.62-1.212
		c-4.366-1.091-6.973-5.093-6.973-5.093s20.979-0.425,22.738-0.244c1.758,0.182-37.593-6.305-41.656-6.547
		c-4.063-0.242-6.003-2.789-6.003-2.789l23.405,0.181c0,0-26.498-6.366-30.56-7.639s-6.609-2.425-9.156-5.639
		c-2.547-3.214-12.612-10.368-14.128-11.52c-1.516-1.152-0.546-2.971-2.547-4.244C22.794,67.256,12.244,56.89,12.244,56.89
		s9.216,3.334,8.489,2.122c-0.728-1.213-2.547-7.336-0.728-6.367c1.819,0.97,40.201,28.86,66.031,34.801
		c25.831,5.941,15.22,6.124,35.411,11.944c20.191,5.82,25.648,8.73,30.438,10.185c4.791,1.455,17.342,10.004,22.011,11.944
		s26.255,12.49,29.104,13.46c2.85,0.97,21.283,11.762,25.103,12.975s19.202,7.892,19.545,11.07
		C247.991,162.202,242.335,186.042,240.314,188.371z"/>
</g>
<g>
	<path fill="#3B1E0F" d="M348.904,156.504c0,0,10.857-4.573,15.111-4.735c4.256-0.163,11.653-4.147,13.172-4.044
		c1.518,0.103,12.103-4.693,12.752-5.761c0.648-1.068,9.535-2.686,12.77-3s13.299-5.312,17.23-6.197
		c3.933-0.885,11.106-4.597,12.873-4.517c1.767,0.079,5.634-4.064,5.634-4.064s-10.171-1.271-13.687,1.331
		c-3.515,2.602-10.039,5.247-13.475,6.083s-12.393,1.708-14.633,1.925c-2.238,0.217-10.771,0.294-12.047,2.679
		c-1.274,2.385-10.318,7.535-13.232,8.571c-2.913,1.037-12.15,4.196-13.073,5.04C357.377,150.659,348.904,156.504,348.904,156.504z"
		/>
	<path fill="#999999" d="M342.779,165.841c0,0-0.541,11.23-0.062,13.57c0.479,2.339,1.692,4.482,2.699,4.51
		c1.008,0.028,6.165-7.633,6.333-9.784c0.167-2.151,2.062-10.875,1.763-11.474c-0.3-0.599-1.039-3.039-3.376-3.816
		C347.801,158.069,342.854,164.092,342.779,165.841z"/>
	<path fill="#999999" d="M347.927,164.527c0,0-0.54,11.23-0.062,13.57c0.479,2.339,1.691,4.482,2.699,4.51
		c1.006,0.028,6.164-7.633,6.332-9.784c0.168-2.151,2.061-10.875,1.763-11.474c-0.3-0.599-1.039-3.039-3.375-3.816
		C352.948,156.756,348.002,162.778,347.927,164.527z"/>
	<path fill="#999999" d="M354.902,162.321c0,0-0.541,11.229-0.062,13.569c0.479,2.339,1.692,4.482,2.7,4.51
		c1.007,0.027,6.165-7.633,6.332-9.784c0.168-2.151,2.062-10.875,1.761-11.474c-0.298-0.599-1.037-3.039-3.373-3.816
		C359.923,154.548,354.979,160.572,354.902,162.321z"/>
	<path fill="#999999" d="M361.71,161.659c0,0-0.541,11.229-0.062,13.569c0.479,2.339,1.69,4.482,2.699,4.51
		c1.006,0.027,6.164-7.633,6.332-9.784c0.168-2.151,2.061-10.875,1.762-11.474s-1.039-3.039-3.375-3.816
		C366.73,153.886,361.785,159.91,361.71,161.659z"/>
	<path fill="#999999" d="M369.018,161.848c0,0-0.541,11.23-0.062,13.57c0.479,2.339,1.691,4.482,2.699,4.51
		c1.007,0.028,6.164-7.633,6.332-9.784s2.061-10.875,1.763-11.474c-0.3-0.599-1.039-3.039-3.375-3.816
		C374.037,154.076,369.092,160.099,369.018,161.848z"/>
	<path fill="#999999" d="M376.395,160.23c0,0-0.541,11.229-0.062,13.569c0.479,2.339,1.69,4.482,2.699,4.51
		c1.007,0.027,6.165-7.633,6.331-9.784c0.169-2.151,2.062-10.875,1.764-11.474c-0.299-0.599-1.039-3.039-3.375-3.816
		C381.415,152.458,376.471,158.481,376.395,160.23z"/>
	<path fill="#999999" d="M381.219,159.154c0,0-0.539,11.23-0.062,13.57c0.479,2.339,1.692,4.482,2.698,4.51
		c1.008,0.027,6.166-7.633,6.334-9.784c0.166-2.151,2.061-10.875,1.761-11.474c-0.298-0.599-1.037-3.039-3.374-3.816
		C386.24,151.382,381.294,157.405,381.219,159.154z"/>
	<path fill="#999999" d="M387.105,155.607c0,0-0.539,11.23-0.062,13.57c0.479,2.34,1.69,4.482,2.699,4.51
		c1.008,0.027,6.165-7.633,6.333-9.784c0.167-2.151,2.06-10.875,1.761-11.475c-0.298-0.599-1.038-3.039-3.374-3.816
		C392.128,147.835,387.182,153.859,387.105,155.607z"/>
	<path fill="#999999" d="M392.204,153.624c0,0-0.54,11.229-0.062,13.569c0.479,2.339,1.69,4.482,2.698,4.51
		c1.007,0.027,6.165-7.633,6.332-9.784c0.168-2.151,2.062-10.875,1.763-11.474c-0.299-0.599-1.039-3.039-3.375-3.816
		C397.225,145.852,392.279,151.875,392.204,153.624z"/>
	<path fill="#999999" d="M398.215,151.347c0,0-0.54,11.23-0.062,13.57c0.479,2.34,1.691,4.482,2.699,4.51
		c1.008,0.028,6.166-7.633,6.334-9.784c0.166-2.151,2.061-10.875,1.763-11.475c-0.3-0.599-1.04-3.039-3.376-3.816
		S398.29,149.599,398.215,151.347z"/>
	<path fill="#999999" d="M403.555,148.944c0,0-0.541,11.23-0.062,13.569c0.479,2.34,1.69,4.482,2.698,4.51s6.166-7.632,6.332-9.784
		c0.168-2.151,2.062-10.875,1.764-11.475c-0.301-0.599-1.039-3.039-3.375-3.816C408.575,141.171,403.63,147.195,403.555,148.944z"/>
	<path fill="#999999" d="M408.536,147.706c0,0-0.54,11.23-0.062,13.57c0.479,2.339,1.69,4.482,2.698,4.51
		c1.007,0.028,6.165-7.633,6.332-9.784c0.168-2.151,2.062-10.875,1.763-11.474c-0.299-0.599-1.039-3.039-3.375-3.816
		C413.557,139.935,408.611,145.957,408.536,147.706z"/>
	<path fill="#999999" d="M414.57,145.676c0,0-0.54,11.23-0.062,13.57c0.479,2.339,1.691,4.482,2.699,4.51
		c1.007,0.028,6.165-7.633,6.332-9.785c0.168-2.151,2.061-10.875,1.763-11.474c-0.3-0.599-1.039-3.039-3.375-3.816
		C419.592,137.904,414.646,143.927,414.57,145.676z"/>
	<path fill="#999999" d="M420.539,142.961c0,0-0.54,11.23-0.062,13.57c0.479,2.34,1.692,4.482,2.699,4.51
		c1.008,0.027,6.165-7.633,6.333-9.785c0.167-2.151,2.062-10.875,1.764-11.475c-0.301-0.599-1.039-3.039-3.376-3.816
		C425.561,135.188,420.614,141.212,420.539,142.961z"/>
	<path fill="#999999" d="M426.478,139.933c0,0-0.54,11.23-0.062,13.57s1.692,4.482,2.699,4.51c1.008,0.028,6.166-7.632,6.333-9.784
		c0.168-2.151,2.061-10.875,1.763-11.475c-0.3-0.599-1.039-3.039-3.375-3.816C431.498,132.16,426.553,138.184,426.478,139.933z"/>
	<path fill="#999999" d="M432.457,137.34c0,0-0.54,11.23-0.062,13.569c0.479,2.34,1.692,4.482,2.699,4.51
		c1.008,0.027,6.165-7.633,6.333-9.784c0.167-2.151,2.062-10.875,1.764-11.475c-0.301-0.599-1.039-3.039-3.376-3.816
		C437.479,129.567,432.532,135.591,432.457,137.34z"/>
	<path fill="#999999" d="M440.891,134.828c0,0-0.54,11.23-0.062,13.569c0.479,2.34,1.69,4.482,2.699,4.51
		c1.007,0.027,6.165-7.633,6.332-9.784c0.168-2.151,2.061-10.875,1.761-11.474c-0.297-0.599-1.037-3.039-3.373-3.816
		C445.912,127.055,440.966,133.079,440.891,134.828z"/>
	<path fill="#999999" d="M446.035,133.994c0,0,2.557,10.948,3.659,13.067c1.101,2.119,2.854,3.847,3.831,3.598
		c0.977-0.25,3.837-9.03,3.409-11.145c-0.43-2.114-0.997-11.023-1.449-11.518c-0.45-0.494-1.83-2.638-4.292-2.745
		C448.733,125.142,445.628,132.291,446.035,133.994z"/>
	<path fill="#999999" d="M454.521,129.349c0,0,2.559,10.949,3.658,13.067c1.103,2.119,2.856,3.847,3.831,3.598
		c0.978-0.25,3.84-9.03,3.41-11.146c-0.428-2.114-0.998-11.023-1.448-11.518c-0.451-0.494-1.832-2.638-4.291-2.746
		C457.223,120.498,454.117,127.646,454.521,129.349z"/>
	<path fill="#999999" d="M497.938,128.492c0,0-7.657-1.265-15.51-4.52c-7.853-3.255-23.266-6.78-24.939-6.784
		c-1.677-0.004-4.49,3.786-3.436,6.027c1.057,2.242,8.898,8.847,11.04,8.471c2.141-0.376,7.347-0.211,10.612,0.643
		c3.264,0.854,14.325,0.951,16.479,0.741C494.344,132.86,499.638,128.818,497.938,128.492z"/>
	<path fill="#999999" d="M512.738,123.574c0,0-7.658-1.265-15.512-4.52c-7.852-3.255-23.266-6.78-24.938-6.785
		c-1.677-0.004-4.49,3.787-3.436,6.028c1.056,2.241,8.898,8.847,11.04,8.471c2.141-0.376,7.347-0.211,10.611,0.643
		s14.325,0.951,16.481,0.741C509.145,127.943,514.438,123.9,512.738,123.574z"/>
	<path fill="#945D14" d="M348.443,156.926c-0.461,0.888-8.209,11.6-8.367,13.624c-0.158,2.025,2.336,0.778,4.923,0.777
		c2.584,0,3.459-1.341,6.869-2.426c3.411-1.085,3.643-3.871,3.643-3.871s2.771,1.363,3.966,0.745c1.195-0.618,3.205-3.2,3.383-3.971
		c0.176-0.771,1.867,3.711,3.772,2.647c1.906-1.064,3.188-2.069,3.542-3.61s2.395,2.656,4.016,1.243s1.584-1.787,1.836-3.068
		c0.252-1.28,1.214,2.143,3.344,0.805c2.131-1.337,2.645-2.518,2.645-2.518s0.644,1.444,3.07,0.581
		c2.428-0.864,2.828-1.908,2.779-2.406s1.967-0.442,3.66-1.109c1.692-0.667,3.965,0.745,6.634-1.524
		c2.668-2.269,1.421-0.892,1.421-0.892s3.007,1.215,4.133-1.407c1.127-2.622-0.133-1.369-0.133-1.369s2.656,1.496,5.076-0.747
		c2.42-2.243,3.455,0.67,3.455,0.67s-0.422-0.463,4.315-2.116s7.605-4.444,7.124-5.527s2.493,2.395,6.057,0.29
		c3.562-2.105,4.689-4.727,7.391-5.366c2.701-0.64,6.216-3.242,6.652-3.913c0.438-0.67,3.375-1.458,5.627-1.552
		c2.251-0.093,7.233-3.09,9.723-3.332c2.488-0.242-5.221-5.897-5.221-5.897s-17.044,1.658-18.191,2.774
		c-1.146,1.116-9.754,5.595-11.087,6.102c-1.332,0.506-12.997,4.53-14.853,4.835c-1.854,0.306-14.613,4.687-15.959,5.069
		c-1.345,0.382-8.955,4.765-10.312,5.022c-1.356,0.257-13.085,4.915-13.956,5C368.549,150.574,349.348,155.188,348.443,156.926z"/>
	<path fill="#999999" d="M497.317,109.642c0,0,17.775,0.281,21.488,0.589c3.716,0.309,14.13,0.635,14.457,2.278
		c0.326,1.643-1.737,4.524-4.193,5.097c-2.456,0.573-15.646,2.693-20.124,3.129c-4.479,0.436-18.259-1.74-23.182-2.434
		c-4.922-0.694-10.668-2.981-12.525-3.136c-1.857-0.154,3.955-5.826,5.767-6.128"/>
	<path fill="#999999" d="M516.104,103.083c0,0,17.775,0.28,21.491,0.589c3.713,0.308,14.127,0.635,14.454,2.278
		c0.326,1.643-1.736,4.523-4.191,5.097c-2.456,0.574-15.646,2.694-20.126,3.129c-4.479,0.436-18.257-1.74-23.179-2.434
		c-4.923-0.694-10.671-2.981-12.527-3.135c-1.858-0.154,3.954-5.826,5.768-6.128"/>
	<path fill="#1D1D1B" d="M338.979,172.18c0,0,8.92-15.688,10.342-16.579c1.42-0.892,7.229-5.727,9.693-6.218
		c2.463-0.491,12.801-5.264,14.565-5.184c1.767,0.079,12.662-9.27,16.69-9.159c4.03,0.111,13.262-0.536,17.17-1.67
		c3.908-1.133,10.36-4.524,12.375-4.469c2.016,0.055,2.775-5.042,7.029-5.205c4.254-0.163,10.571,0.228,12.562,0.034
		c1.99-0.194,9.901-1.484,13.064-2.536c3.163-1.052,1.478-2.897,3.717-3.115c2.238-0.218,19.146,3.161,22.027,4.388
		c2.883,1.227,6.397-1.375,7.914-1.272c1.519,0.104-17.373-5.594-17.373-5.594s25.985,3.752,30.464,3.316
		c4.479-0.436,7.648-4.009,7.648-4.009s-20.688-3.514-22.454-3.593s38.112-0.692,42.166-0.333s6.349-1.873,6.349-1.873
		l-23.176-3.272c0,0,27.146-2.389,31.354-3.049c4.204-0.66,6.895-1.424,9.887-4.227c2.993-2.803,14.003-8.395,15.673-9.311
		c1.669-0.916,0.979-2.858,3.145-3.822c2.168-0.964,14.132-9.664,14.132-9.664s-9.607,1.939-8.709,0.847
		c0.897-1.092,3.601-6.881,1.657-6.189c-1.94,0.691-44.017,22.617-70.439,24.685c-26.425,2.067-15.956,3.812-36.785,6.592
		c-20.829,2.78-26.655,4.853-31.607,5.586c-4.951,0.733-18.627,7.338-23.531,8.568c-4.903,1.23-27.809,8.482-30.771,9.021
		c-2.962,0.54-22.784,8.496-26.741,9.132c-3.957,0.636-20.156,4.975-20.963,8.067C335.242,145.164,337.323,169.578,338.979,172.18z"
		/>
</g>
<path fill="#69340E" d="M263.086,99.365c0,0-5.375,4.836-4.146,6.983s5.664,4.554,7.183,0
	C267.64,101.793,264.627,97.823,263.086,99.365z"/>
<path fill="#522710" d="M368.291,267.984c0,0-8.961,28.328-7.936,31.28c1.024,2.953,9.059,22.234,9.059,22.234
	s-0.396,5.787-4.486-0.785c-4.092-6.57-11.285-18.309-11.285-18.309s11.023,21.565,10.262,22.399
	c-0.764,0.836-4.157,2.619-5.981-1.045c-1.823-3.666-8.832-19.992-8.832-19.992s5.33,20.634,5.25,21.093
	c-0.08,0.461-2.043,2.866-4.188-0.73c-2.145-3.6-5.602-20.848-5.602-20.848s-2.322-34.31-3.242-37.859"/>
<path fill="#522710" d="M224.529,267.861c0,0,3.947,29.449,2.429,32.182c-1.518,2.733-12.751,20.342-12.751,20.342
	s-0.607,5.769,4.554,0c5.161-5.77,14.269-16.092,14.269-16.092s-14.573,19.346-13.965,20.299c0.607,0.955,3.644,3.297,6.072,0
	c2.428-3.297,12.144-18.172,12.144-18.172s-8.804,19.406-8.804,19.873s1.518,3.176,4.25,0s9.108-19.57,9.108-19.57
	s8.197-33.396,9.715-36.736"/>
<path fill="#7F4C12" d="M314.511,90.886c0,0-11.231-1.518-18.822-2.125c-7.59-0.607-12.143-1.822-16.395,0
	c-4.25,1.821-4.25-2.429-8.197,2.125c-3.945,4.554-7.285,12.448-10.929,17.609s-3.34,10.929-8.501,13.965s-4.857,2.429-7.893,6.982
	c-3.037,4.555-10.019,11.233-12.752,17.913c-2.732,6.679-12.75,26.776-13.358,33.729c-0.607,6.952-1.519,12.721-3.036,20.311
	c-1.518,7.59-6.679,27.323-8.805,32.485c-2.125,5.16-0.607,17.912,0,23.681c0.607,5.77,1.214,25.817,4.25,28.393
	c3.037,2.574,30.967,8.646,35.825,8.646s30.056-0.304,39.165,0c9.107,0.305,37.343,2.428,44.933,0
	c7.59-2.429,32.182-10.322,34.609-12.75c2.43-2.431,9.412-9.109,12.752-12.146s9.41-2.731,9.106-10.322
	c-0.305-7.59-1.518-17.307-1.215-24.289c0.306-6.981-2.731-24.286-2.731-28.233s0.606-19.977-3.035-25.774
	c-3.646-5.799-4.252-20.979-6.984-26.443c-2.73-5.465-9.412-18.823-14.572-23.681c-5.16-4.857-13.055-14.572-12.75-15.787
	c0.303-1.215-0.305-13.662-4.555-15.484C336.371,97.869,330.604,88.457,314.511,90.886z"/>
<path fill="#110705" d="M317.157,120.031c0,0,0.608-6.375-1.82-6.072c-2.43,0.304-3.646,4.857-2.125,6.072
	C314.729,121.246,317.157,120.031,317.157,120.031z"/>
<path fill="#110705" d="M270.708,109.405c0,0-1.822,1.8-1.52,4.543c0.305,2.743,2.127,1.811,3.037,0
	C273.135,112.137,272.833,110.315,270.708,109.405z"/>
<path fill="#945815" d="M300.04,130.396c0,0-9.217-11.933-16.297-10.983c-7.08,0.95-19.831,2.691-21.653,13.357
	c-1.821,10.666-6.072,15.523,0,21.899c6.071,6.376,10.569,6.982,15.759,7.286c5.19,0.304,18.549-6.679,19.762-10.019
	C298.825,148.598,303.684,137.697,300.04,130.396z"/>
<path fill="#52200D" d="M292.433,125.476c0,0-5.465-5.465-8.805-4.858c-3.34,0.607-8.805,1.519-10.018,4.858
	c-1.215,3.339-1.52,10.626,2.428,13.358c3.948,2.732,15.787,2.125,16.395,0S294.384,127.21,292.433,125.476z"/>
<path fill="#1D1D1B" d="M292.567,125.449c0,0-4.555,1.869-3.34,3.994s4.25,2.125,4.553,0
	C294.085,127.317,292.567,125.449,292.567,125.449z"/>
<path fill="#1D1D1B" d="M274.048,128.243c0,0,3.34-5.176,1.213-4.872C273.136,123.674,271.618,126.436,274.048,128.243z"/>
<polygon fill="#FFFFFF" points="283.126,161.769 284.96,168.39 279.513,168.39 277.69,161.928 "/>
<path fill="#3B130D" d="M295.603,163.749c0,0-2.234,4.857-6.582,4.857s-8.9-1.821-9.812-2.428c-0.91-0.607-0.91-3.037-1.518-4.251
	c-0.607-1.215-3.877,4.857-3.305,6.679c0.572,1.822,5.98,6.072,8.74,6.376c2.762,0.304,9.084-1.821,10.326-2.732
	C294.692,171.339,295.603,163.749,295.603,163.749z"/>
<polyline fill="#FFFFFF" points="289.021,161.769 284.96,161.769 286.991,168.39 291.421,168.078 "/>
<path fill="#52250F" d="M343.929,196.29l-19.174,7.005c0,0-5.554-4.446-9.24-2.765c-3.685,1.681-5.827-4.39-8.747-1.936
	c-2.92,2.454,2.785,2.195,2.795,3.445c0.008,1.252-6.656,1.988-9.201,6.227c-2.546,4.238,3.333-0.371,6.543-1.334
	c3.212-0.965-3.733,4.48-4.675,7.459c-0.943,2.979,4.718-2.821,6.964-3.897c2.245-1.077-4.154,7.043-4.027,9.187
	c0.126,2.143,7.485-5.863,9.181-5.898c1.692-0.036,1.997,2.072-1.143,6.118c-3.141,4.049,4.527,0.627,6.309-1.285
	c1.779-1.911,8.152-1.042,11.723-1.77c3.569-0.727,10.996-3.79,15.906-4.791"/>
<path fill="#3B160D" d="M276.995,163.157c0,0,13.395-1.678,15.451,0c2.057,1.677,4.262-1.947,2.4-1.957
	c-1.861-0.009-7.686-1.527-10.693-1.224c-3.01,0.304-8.537,0.851-8.809,1.792C275.073,162.709,276.995,163.157,276.995,163.157z"/>
<path fill="#52200D" stroke="#000000" stroke-miterlimit="10" d="M284.96,122.135c0,0-5.775,15.401-1.834,18.479"/>
<path fill="#682C0D" d="M340.807,101.326c0,0-2.731,4.652-2.43,8.14c0.305,3.488-0.605,7.872,2.43,8.26s7.894-5.164,7.894-5.164
	s0.606-8.717-1.214-9.931C345.664,101.417,343.539,100.627,340.807,101.326z"/>
<path fill="#FFFFFF" d="M314.271,115.674c0,0-1.687,2.189-0.767,2.072C314.425,117.629,314.271,115.674,314.271,115.674z"/>
<path fill="#FFFFFF" d="M270.933,111.65c0,0-1.123,0.092-0.971,0.89C270.116,113.336,271.157,113.895,270.933,111.65z"/>
<g>
	<path opacity="0.8" enable-background="new    " d="M237.939,97.802c0,0-0.412,22,7.279,22.333c7.691,0.333,24.583,2,25.138,2
		c0.553,0,8.107,3,12.165-19.667L237.939,97.802z"/>
	<path opacity="0.8" enable-background="new    " d="M300.325,104.211c0,0-0.412,22,7.278,22.333c7.691,0.333,24.584,2,25.14,2
		c0.553,0,8.106,3,12.164-19.667L300.325,104.211z"/>
	<polyline points="281.719,103.657 301.232,105.496 300.321,108.824 280.992,107.286 	"/>
</g>
<path fill="#52250F" d="M237.928,215.935c4.758,1.574,11.769,5.496,15.227,6.643c3.459,1.146,9.891,1.038,11.431,3.146
	c1.542,2.108,8.75,6.416,6.112,2.023c-2.639-4.39-2.086-6.447-0.411-6.212c1.679,0.236,8.038,9.059,8.417,6.946
	c0.38-2.113-5.013-10.936-2.911-9.599c2.103,1.333,7.038,7.766,6.454,4.694c-0.583-3.069-6.833-9.299-3.759-7.96
	c3.074,1.337,8.365,6.608,6.339,2.1c-2.024-4.511-8.555-6.032-8.399-7.273c0.158-1.241,5.793-0.308,3.184-3.089
	c-2.608-2.784-5.455,2.989-8.915,0.884c-3.461-2.104-9.502,1.651-9.502,1.651l-18.209-9.229"/>
<path fill="#7F4C12" d="M340.426,191.399c0,0-0.969,5.726,1.98,9.718c2.949,3.991,4.093,9.281,2.887,14.164
	c-1.206,4.884,6.582,3.041,4.336-7.982S340.557,188.368,340.426,191.399z"/>
<path fill="#7F4C12" d="M240.532,191.837c0,0-3.39,4.716-2.497,9.598c0.892,4.882-0.409,10.136-3.64,13.99
	c-3.232,3.854,4.573,5.627,7.406-5.261C244.634,199.276,241.983,189.172,240.532,191.837z"/>
</svg>
